<mxfile host="app.diagrams.net" agent="Mozilla/5.0 (X11; Linux x86_64) AppleWebKit/537.36 (KHTML, like Gecko) Chrome/141.0.0.0 Safari/537.36" version="28.2.8">
  <diagram name="Page-1" id="1lUmkOFsWZtk8LJ_YKHk">
    <mxGraphModel dx="826" dy="1535" grid="1" gridSize="10" guides="1" tooltips="1" connect="1" arrows="1" fold="1" page="1" pageScale="1" pageWidth="850" pageHeight="1100" math="0" shadow="0">
      <root>
        <mxCell id="0" />
        <mxCell id="1" parent="0" />
        <mxCell id="8fRlT8AflS0t817K7vl5-1" value="" style="rounded=0;whiteSpace=wrap;html=1;dashed=1;strokeWidth=2;" parent="1" vertex="1">
          <mxGeometry x="60" y="110" width="440" height="320" as="geometry" />
        </mxCell>
        <mxCell id="8fRlT8AflS0t817K7vl5-2" value="John Eccles Smith arrived at the Bellman Hotel in Chicago last night. He currently works for the Nvidia Corporation and will give us a talk pretty soon about &quot;How can we trust in Artificial Intelligence nowadays?&quot;&amp;nbsp;" style="text;html=1;whiteSpace=wrap;strokeColor=none;fillColor=none;align=center;verticalAlign=middle;rounded=0;fontSize=22;" parent="1" vertex="1">
          <mxGeometry x="65" y="510" width="430" height="50" as="geometry" />
        </mxCell>
        <mxCell id="8fRlT8AflS0t817K7vl5-3" value="Bellman" style="rounded=1;whiteSpace=wrap;html=1;fillColor=#f8cecc;strokeColor=none;fontSize=20;strokeWidth=4;" parent="1" vertex="1">
          <mxGeometry x="240" y="-20" width="80" height="40" as="geometry" />
        </mxCell>
        <mxCell id="8fRlT8AflS0t817K7vl5-4" value="Hotel" style="rounded=1;whiteSpace=wrap;html=1;fillColor=#f8cecc;strokeColor=none;fontSize=20;strokeWidth=4;" parent="1" vertex="1">
          <mxGeometry x="140" y="10" width="60" height="40" as="geometry" />
        </mxCell>
        <mxCell id="8fRlT8AflS0t817K7vl5-5" value="Chicago" style="rounded=1;whiteSpace=wrap;html=1;fillColor=#fff2cc;strokeColor=none;fontSize=20;strokeWidth=4;" parent="1" vertex="1">
          <mxGeometry x="67.5" y="170" width="90" height="40" as="geometry" />
        </mxCell>
        <mxCell id="8fRlT8AflS0t817K7vl5-6" value="Nvidia Corporation" style="rounded=1;whiteSpace=wrap;html=1;fillColor=#f8cecc;strokeColor=none;fontSize=20;strokeWidth=4;" parent="1" vertex="1">
          <mxGeometry x="170" y="170" width="180" height="40" as="geometry" />
        </mxCell>
        <mxCell id="8fRlT8AflS0t817K7vl5-7" value="Corporation" style="rounded=1;whiteSpace=wrap;html=1;fillColor=#f8cecc;strokeColor=none;fontSize=20;strokeWidth=4;" parent="1" vertex="1">
          <mxGeometry x="470" y="-30" width="120" height="40" as="geometry" />
        </mxCell>
        <mxCell id="8fRlT8AflS0t817K7vl5-8" value="&quot;How" style="rounded=1;whiteSpace=wrap;html=1;fillColor=#d5e8d4;strokeColor=none;fontSize=20;strokeWidth=4;" parent="1" vertex="1">
          <mxGeometry x="610" y="180" width="60" height="40" as="geometry" />
        </mxCell>
        <mxCell id="8fRlT8AflS0t817K7vl5-9" value="can" style="rounded=1;whiteSpace=wrap;html=1;fillColor=#d5e8d4;strokeColor=none;fontSize=20;strokeWidth=4;" parent="1" vertex="1">
          <mxGeometry x="640" y="270" width="50" height="40" as="geometry" />
        </mxCell>
        <mxCell id="8fRlT8AflS0t817K7vl5-10" value="we" style="rounded=1;whiteSpace=wrap;html=1;fillColor=#d5e8d4;strokeColor=none;fontSize=20;strokeWidth=4;" parent="1" vertex="1">
          <mxGeometry x="610" y="420" width="40" height="40" as="geometry" />
        </mxCell>
        <mxCell id="8fRlT8AflS0t817K7vl5-11" value="trust" style="rounded=1;whiteSpace=wrap;html=1;fillColor=#d5e8d4;strokeColor=none;fontSize=20;strokeWidth=4;" parent="1" vertex="1">
          <mxGeometry x="620" y="320" width="50" height="40" as="geometry" />
        </mxCell>
        <mxCell id="8fRlT8AflS0t817K7vl5-12" value="in" style="rounded=1;whiteSpace=wrap;html=1;fillColor=#d5e8d4;strokeColor=none;fontSize=20;strokeWidth=4;" parent="1" vertex="1">
          <mxGeometry x="760" y="180" width="30" height="40" as="geometry" />
        </mxCell>
        <mxCell id="8fRlT8AflS0t817K7vl5-13" value="Artificial" style="rounded=1;whiteSpace=wrap;html=1;fillColor=#d5e8d4;strokeColor=none;fontSize=20;strokeWidth=4;" parent="1" vertex="1">
          <mxGeometry x="530" y="120" width="80" height="40" as="geometry" />
        </mxCell>
        <mxCell id="8fRlT8AflS0t817K7vl5-14" value="Intelligence" style="rounded=1;whiteSpace=wrap;html=1;fillColor=#d5e8d4;strokeColor=none;fontSize=20;strokeWidth=4;" parent="1" vertex="1">
          <mxGeometry x="840" y="370" width="110" height="40" as="geometry" />
        </mxCell>
        <mxCell id="8fRlT8AflS0t817K7vl5-15" value="John Eccles Smith" style="rounded=1;whiteSpace=wrap;html=1;fillColor=#e1d5e7;strokeColor=none;fontSize=20;strokeWidth=4;" parent="1" vertex="1">
          <mxGeometry x="65" y="120" width="185" height="40" as="geometry" />
        </mxCell>
        <mxCell id="8fRlT8AflS0t817K7vl5-16" value="Bellman Hotel" style="rounded=1;whiteSpace=wrap;html=1;fillColor=#f8cecc;strokeColor=none;fontSize=20;strokeWidth=4;" parent="1" vertex="1">
          <mxGeometry x="260" y="120" width="140" height="40" as="geometry" />
        </mxCell>
        <mxCell id="8fRlT8AflS0t817K7vl5-17" value="&lt;span style=&quot;font-size: 22px;&quot;&gt;&quot;How can&amp;nbsp;&lt;/span&gt;" style="rounded=1;whiteSpace=wrap;html=1;fillColor=#FFFFFF;strokeColor=none;fontSize=20;strokeWidth=4;gradientColor=#97D077;gradientDirection=west;" parent="1" vertex="1">
          <mxGeometry x="360" y="170" width="120" height="40" as="geometry" />
        </mxCell>
        <mxCell id="8fRlT8AflS0t817K7vl5-18" value="&lt;span style=&quot;font-size: 22px;&quot;&gt;we trust in Artificial Intelligence&amp;nbsp;&lt;/span&gt;" style="rounded=1;whiteSpace=wrap;html=1;fillColor=#d5e8d4;strokeColor=none;fontSize=20;strokeWidth=4;gradientColor=#FFFFFF;gradientDirection=radial;" parent="1" vertex="1">
          <mxGeometry x="65" y="220" width="320" height="40" as="geometry" />
        </mxCell>
        <mxCell id="8fRlT8AflS0t817K7vl5-19" value="&lt;span style=&quot;font-size: 22px;&quot;&gt;nowadays?&quot;&amp;nbsp;&lt;/span&gt;" style="rounded=1;whiteSpace=wrap;html=1;fillColor=#d5e8d4;strokeColor=none;fontSize=20;strokeWidth=4;gradientColor=#FFFFFF;gradientDirection=west;" parent="1" vertex="1">
          <mxGeometry x="65" y="260" width="140" height="40" as="geometry" />
        </mxCell>
        <mxCell id="8fRlT8AflS0t817K7vl5-20" value="&lt;span style=&quot;font-size: 22px;&quot;&gt;&quot;How can we trust in Artificial Intelligence nowadays?&quot;&amp;nbsp;&lt;/span&gt;" style="rounded=1;whiteSpace=wrap;html=1;fillColor=#97D077;strokeColor=none;fontSize=20;strokeWidth=4;gradientColor=none;gradientDirection=west;" parent="1" vertex="1">
          <mxGeometry x="690" y="80" width="550" height="40" as="geometry" />
        </mxCell>
        <mxCell id="DAaEDkxgAwS5vAa7Gg8q-1" value="Eccles" style="rounded=1;whiteSpace=wrap;html=1;fillColor=#e1d5e7;strokeColor=none;fontSize=20;strokeWidth=4;" vertex="1" parent="1">
          <mxGeometry x="1060" y="280" width="70" height="40" as="geometry" />
        </mxCell>
        <mxCell id="DAaEDkxgAwS5vAa7Gg8q-2" value="Smith" style="rounded=1;whiteSpace=wrap;html=1;fillColor=#e1d5e7;strokeColor=none;fontSize=20;strokeWidth=4;" vertex="1" parent="1">
          <mxGeometry x="810" y="270" width="70" height="40" as="geometry" />
        </mxCell>
        <mxCell id="DAaEDkxgAwS5vAa7Gg8q-3" value="Nvidia" style="rounded=1;whiteSpace=wrap;html=1;fillColor=#f8cecc;strokeColor=none;fontSize=20;strokeWidth=4;" vertex="1" parent="1">
          <mxGeometry x="385" y="30" width="80" height="40" as="geometry" />
        </mxCell>
      </root>
    </mxGraphModel>
  </diagram>
</mxfile>
